####
#
# OBJ File Generated by Meshlab
#
####
# Object rightwall.obj
#
# Vertices: 6
# Faces: 2
#
####
vn -1.000000 0.000000 0.000000
v 1.000000 1.000000 0.000000
vn -1.000000 0.000000 0.000000
v 1.000000 -1.000000 0.000000
vn -1.000000 0.000000 0.000000
v 1.000000 1.000000 2.000000
vn -1.000000 0.000001 -0.000000
v 1.000000 -1.000000 0.000000
vn -1.000000 0.000001 -0.000000
v 1.000000 -1.000001 2.000000
vn -1.000000 0.000001 -0.000000
v 1.000000 1.000000 2.000000
# 6 vertices, 0 vertices normals

f 1//1 2//2 3//3
f 4//4 5//5 6//6
# 2 faces, 0 coords texture

# End of File